<?xml version="1.0" encoding="UTF-8"?><svg id="Layer_2" xmlns="http://www.w3.org/2000/svg" viewBox="0 0 879.39 524.47"><defs><style>.cls-1{fill:#38bdf8;fill-rule:evenodd;}</style></defs><g id="Layer_1-2"><path class="cls-1" d="m439.71,0c-117.26,0-190.53,58.28-219.86,174.83,43.98-58.28,95.28-80.13,153.9-65.57,33.45,8.31,57.36,32.43,83.82,59.14,43.11,43.49,93.02,93.83,201.99,93.83,117.25,0,190.53-58.28,219.84-174.82-43.96,58.28-95.26,80.13-153.88,65.55-33.46-8.31-57.38-32.43-83.83-59.12C598.57,50.32,548.68,0,439.71,0Zm-219.86,262.23c-117.25,0-190.53,58.28-219.84,174.83,43.98-58.28,95.27-80.13,153.88-65.57,33.46,8.31,57.38,32.43,83.83,59.14,43.11,43.49,93,93.83,201.99,93.83,117.25,0,190.53-58.26,219.84-174.82-43.98,58.28-95.27,80.13-153.9,65.57-33.45-8.32-57.36-32.45-83.82-59.14-43.11-43.49-93.02-93.84-201.99-93.84Z"/></g></svg>