<svg 
 xmlns="http://www.w3.org/2000/svg"
 xmlns:xlink="http://www.w3.org/1999/xlink"
 width="157" height="157" viewBox="0 0 157 157">
<path fill-rule="evenodd"  fill="rgb(0, 0, 0)"
 d="M82.378,92.261 C82.378,93.877 81.897,95.119 80.935,95.986 C79.972,96.854 78.600,97.287 76.818,97.287 L73.895,97.287 L73.895,87.093 L76.818,87.093 C78.600,87.093 79.972,87.538 80.935,88.429 C81.897,89.320 82.378,90.598 82.378,92.261 ZM31.524,89.481 L31.844,89.481 C31.916,90.907 32.094,92.428 32.379,94.043 C32.664,95.660 33.199,97.964 33.983,100.958 L35.587,106.875 L27.781,106.875 L29.385,100.958 C30.169,97.964 30.704,95.660 30.989,94.043 C31.274,92.428 31.452,90.907 31.524,89.481 ZM78.500,157.000 C52.928,157.000 30.219,144.766 15.886,125.838 L23.040,125.838 L24.644,119.280 L38.795,119.280 L40.470,125.838 L55.502,125.838 L60.645,125.838 L73.895,125.838 L73.895,108.622 L83.020,125.838 L104.050,125.838 L90.113,104.594 C93.202,104.190 95.656,102.788 97.474,100.388 C99.292,97.988 100.201,94.934 100.201,91.227 C100.201,91.056 100.183,90.897 100.180,90.728 L106.464,90.728 L106.464,125.838 L125.213,125.838 L125.213,90.728 L135.657,90.728 L135.657,73.655 L96.020,73.655 L96.020,79.345 C95.634,78.938 95.223,78.549 94.783,78.181 C91.170,75.164 85.943,73.655 79.099,73.655 L55.502,73.655 L55.502,111.133 L42.395,73.655 L21.507,73.655 L7.687,112.414 C2.762,102.148 0.000,90.647 0.000,78.500 C0.000,35.146 35.146,0.000 78.500,0.000 C121.854,0.000 157.000,35.146 157.000,78.500 C157.000,121.854 121.854,157.000 78.500,157.000 Z"/>
</svg>